<svg id="visual" viewBox="0 0 960 540" width="960" height="540" xmlns="http://www.w3.org/2000/svg" xmlns:xlink="http://www.w3.org/1999/xlink" version="1.1"><rect x="0" y="0" width="960" height="540" fill="#171717"></rect><path d="M0 125L22.8 120.5C45.7 116 91.3 107 137 97.3C182.7 87.7 228.3 77.3 274 94.2C319.7 111 365.3 155 411.2 181.8C457 208.7 503 218.3 548.8 221.5C594.7 224.7 640.3 221.3 686 214.2C731.7 207 777.3 196 823 197.5C868.7 199 914.3 213 937.2 220L960 227L960 0L937.2 0C914.3 0 868.7 0 823 0C777.3 0 731.7 0 686 0C640.3 0 594.7 0 548.8 0C503 0 457 0 411.2 0C365.3 0 319.7 0 274 0C228.3 0 182.7 0 137 0C91.3 0 45.7 0 22.8 0L0 0Z" fill="#0b0b0b" stroke-linecap="round" stroke-linejoin="miter"></path></svg>